<svg width="11" height="12" viewBox="0 0 11 12" xmlns="http://www.w3.org/2000/svg">
<path d="M0.669659 4.9787C0.732632 5.05466 0.809973 5.11745 0.89725 5.16347C0.984526 5.20949 1.08002 5.23785 1.17827 5.24691C1.27652 5.25596 1.3756 5.24555 1.46982 5.21626C1.56404 5.18697 1.65155 5.13939 1.72735 5.07622L4.99796 2.35322L4.99796 11.2499C4.99796 11.4488 5.07699 11.6396 5.21767 11.7803C5.35835 11.921 5.54915 12 5.7481 12C5.94704 12 6.13784 11.921 6.27852 11.7803C6.4192 11.6396 6.49823 11.4488 6.49823 11.2499L6.49823 2.35322L9.76884 5.07622C9.84469 5.13927 9.93222 5.18676 10.0264 5.21598C10.1206 5.2452 10.2197 5.25557 10.3179 5.24652C10.4161 5.23746 10.5116 5.20915 10.5988 5.1632C10.6861 5.11725 10.7635 5.05456 10.8265 4.9787C10.8896 4.90285 10.9371 4.81532 10.9663 4.72112C10.9955 4.62691 11.0059 4.52788 10.9968 4.42966C10.9878 4.33144 10.9595 4.23597 10.9135 4.1487C10.8676 4.06142 10.8049 3.98406 10.729 3.92101L6.22818 0.170316L6.11566 0.102804L6.01815 0.0502944C5.84436 -0.0167651 5.65183 -0.0167651 5.47805 0.0502944L5.38053 0.102804L5.26801 0.170316L0.767178 3.92101C0.69122 3.98398 0.628431 4.06132 0.582409 4.1486C0.536386 4.23587 0.508033 4.33137 0.498975 4.42962C0.489917 4.52787 0.500331 4.62695 0.529619 4.72117C0.558908 4.81539 0.606496 4.9029 0.669659 4.9787Z"/>
</svg>
