<svg width="14" height="12" viewBox="0 0 14 12" fill="none" xmlns="http://www.w3.org/2000/svg">
<path d="M5.53081 11.6414C5.61519 11.5715 5.68494 11.4856 5.73607 11.3886C5.7872 11.2917 5.81869 11.1856 5.82876 11.0764C5.83882 10.9673 5.82725 10.8572 5.79472 10.7525C5.76218 10.6479 5.70931 10.5507 5.63914 10.4664L2.61414 6.83311L12.4975 6.83311C12.7185 6.83311 12.9305 6.74532 13.0867 6.58903C13.243 6.43275 13.3308 6.22079 13.3308 5.99978C13.3308 5.77877 13.243 5.5668 13.0867 5.41052C12.9305 5.25424 12.7185 5.16645 12.4975 5.16645L2.61414 5.16645L5.63914 1.53311C5.70918 1.44885 5.76194 1.35161 5.7944 1.24696C5.82686 1.14231 5.83839 1.03229 5.82833 0.923176C5.81827 0.814067 5.78682 0.708008 5.73577 0.611055C5.68472 0.514101 5.61508 0.428151 5.53081 0.358113C5.44655 0.288074 5.34931 0.235319 5.24466 0.202859C5.14001 0.170399 5.02998 0.158869 4.92087 0.168929C4.81177 0.178988 4.70571 0.21044 4.60875 0.261488C4.5118 0.312537 4.42585 0.382181 4.35581 0.466446L0.189144 5.46644L0.114143 5.59145L0.0558107 5.69978C-0.0186875 5.89284 -0.0186875 6.10672 0.0558107 6.29978L0.114143 6.40811L0.189144 6.53311L4.35581 11.5331C4.42577 11.6175 4.51168 11.6872 4.60864 11.7384C4.7056 11.7895 4.81169 11.821 4.92083 11.8311C5.02998 11.8411 5.14004 11.8296 5.24471 11.797C5.34938 11.7645 5.4466 11.7116 5.53081 11.6414Z" fill="currentColor"/>
</svg>
