<svg width="18" height="19" viewBox="0 0 18 19" fill="none" xmlns="http://www.w3.org/2000/svg">
<path fill-rule="evenodd" clip-rule="evenodd" d="M0.564865 3.63629C0.926543 3.27462 1.41708 3.07143 1.92857 3.07143C2.28361 3.07143 2.57143 3.35925 2.57143 3.71429C2.57143 4.06933 2.28361 4.35714 1.92857 4.35714C1.75807 4.35714 1.59456 4.42487 1.474 4.54543C1.35344 4.66599 1.28571 4.8295 1.28571 5V16.5714C1.28571 16.7419 1.35344 16.9054 1.474 17.026C1.59456 17.1466 1.75808 17.2143 1.92857 17.2143H16.0714C16.2419 17.2143 16.4054 17.1466 16.526 17.026C16.6466 16.9054 16.7143 16.7419 16.7143 16.5714V5C16.7143 4.8295 16.6466 4.66599 16.526 4.54543C16.4054 4.42487 16.2419 4.35714 16.0714 4.35714H13.5C13.145 4.35714 12.8571 4.06933 12.8571 3.71429C12.8571 3.35925 13.145 3.07143 13.5 3.07143H16.0714C16.5829 3.07143 17.0735 3.27462 17.4351 3.63629C17.7968 3.99797 18 4.48851 18 5V16.5714C18 17.0829 17.7968 17.5735 17.4351 17.9351C17.0735 18.2968 16.5829 18.5 16.0714 18.5H1.92857C1.41708 18.5 0.926543 18.2968 0.564865 17.9351C0.203188 17.5735 0 17.0829 0 16.5714V5C0 4.48851 0.203188 3.99797 0.564865 3.63629Z" fill="currentColor"/>
<path fill-rule="evenodd" clip-rule="evenodd" d="M0 8.85714C0 8.5021 0.287817 8.21429 0.642857 8.21429H17.3571C17.7122 8.21429 18 8.5021 18 8.85714C18 9.21218 17.7122 9.5 17.3571 9.5H0.642857C0.287817 9.5 0 9.21218 0 8.85714Z" fill="currentColor"/>
<path fill-rule="evenodd" clip-rule="evenodd" d="M4.5 0.5C4.85504 0.5 5.14286 0.787817 5.14286 1.14286V6.28571C5.14286 6.64075 4.85504 6.92857 4.5 6.92857C4.14496 6.92857 3.85714 6.64075 3.85714 6.28571V1.14286C3.85714 0.787817 4.14496 0.5 4.5 0.5Z" fill="currentColor"/>
<path fill-rule="evenodd" clip-rule="evenodd" d="M13.5 0.5C13.855 0.5 14.1429 0.787817 14.1429 1.14286V6.28571C14.1429 6.64075 13.855 6.92857 13.5 6.92857C13.145 6.92857 12.8571 6.64075 12.8571 6.28571V1.14286C12.8571 0.787817 13.145 0.5 13.5 0.5Z" fill="currentColor"/>
<path fill-rule="evenodd" clip-rule="evenodd" d="M3.85714 3.71429C3.85714 3.35925 4.14496 3.07143 4.5 3.07143H10.9286C11.2836 3.07143 11.5714 3.35925 11.5714 3.71429C11.5714 4.06933 11.2836 4.35714 10.9286 4.35714H4.5C4.14496 4.35714 3.85714 4.06933 3.85714 3.71429Z" fill="currentColor"/>
</svg>
