<svg width="15" height="16" viewBox="0 0 15 16" fill="none" xmlns="http://www.w3.org/2000/svg">
<path d="M15 8C15 12.1421 11.6421 15.5 7.5 15.5C3.35786 15.5 0 12.1421 0 8C0 3.85786 3.35786 0.5 7.5 0.5C11.6421 0.5 15 3.85786 15 8Z" fill="currentColor"/>
<path fill-rule="evenodd" clip-rule="evenodd" d="M10.7653 5.48144C10.975 5.66114 10.9993 5.97679 10.8196 6.18646L7.15292 10.4647C7.05793 10.5756 6.91925 10.6393 6.77327 10.6393C6.6273 10.6393 6.48862 10.5756 6.39363 10.4647L4.5603 8.32559C4.3806 8.11592 4.40489 7.80027 4.61457 7.62057C4.82424 7.44087 5.13989 7.46517 5.31959 7.67484L6.77327 9.371L10.0603 5.53571C10.24 5.32604 10.5556 5.30174 10.7653 5.48144Z" fill="white"/>
</svg>
