<svg width="8" height="8" viewBox="0 0 8 8" fill="none" xmlns="http://www.w3.org/2000/svg">
<path d="M7.38742 0.612424C7.27122 0.495263 7.13297 0.402271 6.98065 0.33881C6.82832 0.275349 6.66494 0.242676 6.49992 0.242676C6.33491 0.242676 6.17153 0.275349 6.0192 0.33881C5.86688 0.402271 5.72863 0.495263 5.61242 0.612424L3.99992 2.23742L2.38742 0.612424C2.15204 0.377044 1.8328 0.24481 1.49992 0.24481C1.16705 0.24481 0.847803 0.377044 0.612424 0.612424C0.377044 0.847803 0.24481 1.16705 0.24481 1.49992C0.24481 1.8328 0.377044 2.15204 0.612424 2.38742L2.23742 3.99992L0.612424 5.61242C0.495263 5.72863 0.402271 5.86688 0.33881 6.0192C0.275349 6.17153 0.242676 6.33491 0.242676 6.49992C0.242676 6.66494 0.275349 6.82832 0.33881 6.98065C0.402271 7.13297 0.495263 7.27122 0.612424 7.38742C0.728627 7.50458 0.866879 7.59758 1.0192 7.66104C1.17153 7.7245 1.33491 7.75717 1.49992 7.75717C1.66494 7.75717 1.82832 7.7245 1.98064 7.66104C2.13297 7.59758 2.27122 7.50458 2.38742 7.38742L3.99992 5.76242L5.61242 7.38742C5.72863 7.50458 5.86688 7.59758 6.0192 7.66104C6.17153 7.7245 6.33491 7.75717 6.49992 7.75717C6.66494 7.75717 6.82832 7.7245 6.98065 7.66104C7.13297 7.59758 7.27122 7.50458 7.38742 7.38742C7.50458 7.27122 7.59758 7.13297 7.66104 6.98065C7.7245 6.82832 7.75717 6.66494 7.75717 6.49992C7.75717 6.33491 7.7245 6.17153 7.66104 6.0192C7.59758 5.86688 7.50458 5.72863 7.38742 5.61242L5.76242 3.99992L7.38742 2.38742C7.50458 2.27122 7.59758 2.13297 7.66104 1.98064C7.7245 1.82832 7.75717 1.66494 7.75717 1.49992C7.75717 1.33491 7.7245 1.17153 7.66104 1.0192C7.59758 0.866879 7.50458 0.728627 7.38742 0.612424Z" fill="currentColor"/>
</svg>
