<svg width="15" height="16" viewBox="0 0 15 16" fill="none" xmlns="http://www.w3.org/2000/svg">
<path d="M15 8C15 12.1421 11.6421 15.5 7.5 15.5C3.35786 15.5 0 12.1421 0 8C0 3.85786 3.35786 0.5 7.5 0.5C11.6421 0.5 15 3.85786 15 8Z" fill="currentColor"/>
<path fill-rule="evenodd" clip-rule="evenodd" d="M4.93165 5.73209C5.01603 5.64782 5.1304 5.60049 5.24965 5.60049C5.3689 5.60049 5.48328 5.64782 5.56765 5.73209L7.49965 7.66409L9.43165 5.73209C9.47285 5.68788 9.52253 5.65242 9.57773 5.62782C9.63293 5.60323 9.69252 5.59 9.75294 5.58894C9.81336 5.58787 9.87338 5.59899 9.92941 5.62162C9.98544 5.64425 10.0363 5.67794 10.0791 5.72067C10.1218 5.7634 10.1555 5.8143 10.1781 5.87033C10.2008 5.92637 10.2119 5.98638 10.2108 6.04681C10.2097 6.10723 10.1965 6.16682 10.1719 6.22201C10.1473 6.27721 10.1119 6.3269 10.0677 6.36809L8.13565 8.30009L10.0677 10.2321C10.1119 10.2733 10.1473 10.323 10.1719 10.3782C10.1965 10.4334 10.2097 10.493 10.2108 10.5534C10.2119 10.6138 10.2008 10.6738 10.1781 10.7299C10.1555 10.7859 10.1218 10.8368 10.0791 10.8795C10.0363 10.9222 9.98544 10.9559 9.92941 10.9786C9.87338 11.0012 9.81336 11.0123 9.75294 11.0112C9.69252 11.0102 9.63293 10.997 9.57773 10.9724C9.52253 10.9478 9.47285 10.9123 9.43165 10.8681L7.49965 8.93609L5.56765 10.8681C5.48235 10.9476 5.36952 10.9909 5.25294 10.9888C5.13636 10.9867 5.02513 10.9395 4.94268 10.8571C4.86023 10.7746 4.813 10.6634 4.81095 10.5468C4.80889 10.4302 4.85217 10.3174 4.93165 10.2321L6.86365 8.30009L4.93165 6.36809C4.84738 6.28372 4.80005 6.16934 4.80005 6.05009C4.80005 5.93084 4.84738 5.81647 4.93165 5.73209Z" fill="white"/>
</svg>
