<svg width="20" height="20" viewBox="0 0 20 20" fill="none" xmlns="http://www.w3.org/2000/svg">
<path d="M14.4579 3.54949L16.7005 5.79104L14.4579 3.54949ZM15.9001 1.57476L9.83611 7.63871C9.52279 7.95159 9.3091 8.35023 9.22199 8.78437L8.66187 11.5882L11.4657 11.027C11.8998 10.9402 12.2979 10.7273 12.6113 10.4139L18.6753 4.34997C18.8575 4.16775 19.002 3.95142 19.1006 3.71333C19.1993 3.47525 19.25 3.22007 19.25 2.96237C19.25 2.70466 19.1993 2.44949 19.1006 2.2114C19.002 1.97332 18.8575 1.75699 18.6753 1.57476C18.493 1.39254 18.2767 1.24799 18.0386 1.14938C17.8005 1.05076 17.5454 1 17.2877 1C17.03 1 16.7748 1.05076 16.5367 1.14938C16.2986 1.24799 16.0823 1.39254 15.9001 1.57476V1.57476Z" stroke="currentColor" stroke-width="1.5" stroke-linecap="round" stroke-linejoin="round"/>
<path d="M17.1325 13.706V16.8825C17.1325 17.4442 16.9094 17.9828 16.5123 18.3799C16.1151 18.7771 15.5765 19.0002 15.0148 19.0002H3.36767C2.80603 19.0002 2.26739 18.7771 1.87025 18.3799C1.47311 17.9828 1.25 17.4442 1.25 16.8825V5.23534C1.25 4.6737 1.47311 4.13507 1.87025 3.73793C2.26739 3.34079 2.80603 3.11768 3.36767 3.11768H6.54417" stroke="currentColor" stroke-width="1.5" stroke-linecap="round" stroke-linejoin="round"/>
</svg>
