<svg width="19" height="20" viewBox="0 0 19 20" fill="none" xmlns="http://www.w3.org/2000/svg">
<path d="M4.90979 18.5H18" stroke="currentColor" stroke-width="1.71429" stroke-linecap="round" stroke-linejoin="round"/>
<path d="M16.4554 8.95723C16.5737 8.84251 16.6678 8.70518 16.7321 8.5534C16.7964 8.40161 16.8295 8.23846 16.8295 8.07363C16.8295 7.9088 16.7964 7.74565 16.7321 7.59387C16.6678 7.44208 16.5737 7.30476 16.4554 7.19004L11.1276 1.84923C10.8856 1.62474 10.5676 1.5 10.2375 1.5C9.90736 1.5 9.58942 1.62474 9.34736 1.84923L1.34923 9.84736C1.12474 10.0894 1 10.4074 1 10.7375C1 11.0676 1.12474 11.3856 1.34923 11.6276L4.54325 14.8086C4.6558 14.9283 4.79167 15.0238 4.9425 15.0891C5.09334 15.1544 5.25594 15.1881 5.42029 15.1882H9.71389C9.88044 15.1899 10.0455 15.157 10.1988 15.0917C10.352 15.0264 10.49 14.93 10.604 14.8086L16.4554 8.95723Z" stroke="currentColor" stroke-width="1.71429" stroke-linecap="round" stroke-linejoin="round"/>
</svg>
