<svg width="15" height="16" viewBox="0 0 15 16" fill="none" xmlns="http://www.w3.org/2000/svg">
<path d="M7.5 15.5C11.6421 15.5 15 12.1421 15 8C15 3.85786 11.6421 0.5 7.5 0.5C3.35786 0.5 0 3.85786 0 8C0 12.1421 3.35786 15.5 7.5 15.5Z" fill="currentColor"/>
<path fill-rule="evenodd" clip-rule="evenodd" d="M5.76929 4.68715C6.00598 4.68715 6.19786 4.87903 6.19786 5.11572V10.885C6.19786 11.1216 6.00598 11.3135 5.76929 11.3135C5.53259 11.3135 5.34072 11.1216 5.34072 10.885V5.11572C5.34072 4.87903 5.53259 4.68715 5.76929 4.68715Z" fill="white"/>
<path fill-rule="evenodd" clip-rule="evenodd" d="M9.23083 4.68715C9.46753 4.68715 9.65941 4.87903 9.65941 5.11572V10.885C9.65941 11.1216 9.46753 11.3135 9.23083 11.3135C8.99414 11.3135 8.80226 11.1216 8.80226 10.885V5.11572C8.80226 4.87903 8.99414 4.68715 9.23083 4.68715Z" fill="white"/>
</svg>
