<svg width="20" height="20" viewBox="0 0 20 20" fill="none" xmlns="http://www.w3.org/2000/svg">
<path d="M20 10C20 15.5228 15.5228 20 10 20C4.47715 20 0 15.5228 0 10C0 4.47715 4.47715 0 10 0C15.5228 0 20 4.47715 20 10Z" fill="currentColor"/>
<path d="M13.3107 10.3333L8.695 6.84045V13.8262L13.3107 10.3333ZM13.9406 9.61131C14.0381 9.68413 14.1191 9.78925 14.1754 9.91604C14.2318 10.0428 14.2615 10.1868 14.2615 10.3333C14.2615 10.4799 14.2318 10.6238 14.1754 10.7506C14.1191 10.8774 14.0381 10.9825 13.9406 11.0554L8.8803 14.8854C8.46676 15.1987 7.89974 14.8408 7.89974 14.1634V6.5033C7.89974 5.82589 8.46676 5.46799 8.8803 5.78128L13.9406 9.61131Z" fill="white"/>
</svg>
