<svg width="15" height="16" viewBox="0 0 15 16" fill="none" xmlns="http://www.w3.org/2000/svg">
<path d="M8.08236 0.877567L9.92131 4.74895C9.96313 4.84721 10.0289 4.93233 10.1121 4.99581C10.1953 5.05929 10.293 5.09893 10.3955 5.11076L14.4551 5.7379C14.5726 5.75366 14.6834 5.80396 14.7746 5.88294C14.8657 5.96191 14.9335 6.0663 14.9698 6.18391C15.0062 6.30152 15.0098 6.4275 14.9801 6.54713C14.9503 6.66676 14.8886 6.77511 14.802 6.85952L11.8759 9.88668C11.8012 9.95943 11.7452 10.0505 11.7129 10.1516C11.6805 10.2527 11.673 10.3606 11.6909 10.4656L12.3964 14.7229C12.4168 14.8452 12.4039 14.9711 12.3591 15.0861C12.3143 15.2012 12.2395 15.3008 12.1431 15.3737C12.0467 15.4466 11.9326 15.4898 11.8138 15.4984C11.695 15.507 11.5763 15.4807 11.4711 15.4224L7.81635 13.4083C7.72276 13.3604 7.61989 13.3355 7.51564 13.3355C7.41138 13.3355 7.30852 13.3604 7.21493 13.4083L3.56016 15.4224C3.45502 15.4807 3.33629 15.507 3.2175 15.4984C3.09871 15.4898 2.98462 15.4466 2.88821 15.3737C2.7918 15.3008 2.71695 15.2012 2.67217 15.0861C2.62739 14.9711 2.61448 14.8452 2.6349 14.7229L3.34041 10.4173C3.35829 10.3124 3.35073 10.2045 3.31841 10.1034C3.28609 10.0023 3.23004 9.91119 3.15536 9.83843L0.194538 6.85952C0.106942 6.7728 0.0453399 6.66145 0.0171937 6.53897C-0.0109524 6.41649 -0.00443485 6.28812 0.0359568 6.16942C0.0763485 6.05072 0.148881 5.94678 0.244769 5.87019C0.340656 5.7936 0.455784 5.74765 0.576207 5.7379L4.63577 5.11076C4.73824 5.09893 4.83595 5.05929 4.91915 4.99581C5.00235 4.93233 5.06814 4.84721 5.10997 4.74895L6.94892 0.877567C6.999 0.764813 7.07896 0.669351 7.17938 0.60245C7.2798 0.535549 7.39648 0.5 7.51564 0.5C7.6348 0.5 7.75148 0.535549 7.8519 0.60245C7.95231 0.669351 8.03228 0.764813 8.08236 0.877567Z" fill="currentColor"/>
</svg>
