<svg width="13" height="16" viewBox="0 0 13 16" fill="none" xmlns="http://www.w3.org/2000/svg">
<path d="M3.99994 6C4.13255 6 4.25972 6.05268 4.35349 6.14645C4.44726 6.24021 4.49994 6.36739 4.49994 6.5V12.5C4.49994 12.6326 4.44726 12.7598 4.35349 12.8536C4.25972 12.9473 4.13255 13 3.99994 13C3.86733 13 3.74015 12.9473 3.64639 12.8536C3.55262 12.7598 3.49994 12.6326 3.49994 12.5V6.5C3.49994 6.36739 3.55262 6.24021 3.64639 6.14645C3.74015 6.05268 3.86733 6 3.99994 6ZM6.49994 6C6.63255 6 6.75972 6.05268 6.85349 6.14645C6.94726 6.24021 6.99994 6.36739 6.99994 6.5V12.5C6.99994 12.6326 6.94726 12.7598 6.85349 12.8536C6.75972 12.9473 6.63255 13 6.49994 13C6.36733 13 6.24015 12.9473 6.14639 12.8536C6.05262 12.7598 5.99994 12.6326 5.99994 12.5V6.5C5.99994 6.36739 6.05262 6.24021 6.14639 6.14645C6.24015 6.05268 6.36733 6 6.49994 6ZM9.49994 6.5C9.49994 6.36739 9.44726 6.24021 9.35349 6.14645C9.25972 6.05268 9.13255 6 8.99994 6C8.86733 6 8.74015 6.05268 8.64639 6.14645C8.55262 6.24021 8.49994 6.36739 8.49994 6.5V12.5C8.49994 12.6326 8.55262 12.7598 8.64639 12.8536C8.74015 12.9473 8.86733 13 8.99994 13C9.13255 13 9.25972 12.9473 9.35349 12.8536C9.44726 12.7598 9.49994 12.6326 9.49994 12.5V6.5Z" fill="currentColor"/>
<path fill-rule="evenodd" clip-rule="evenodd" d="M13 3.5C13 3.76522 12.8946 4.01957 12.7071 4.20711C12.5196 4.39464 12.2652 4.5 12 4.5H11.5V13.5C11.5 14.0304 11.2893 14.5391 10.9142 14.9142C10.5391 15.2893 10.0304 15.5 9.5 15.5H3.5C2.96957 15.5 2.46086 15.2893 2.08579 14.9142C1.71071 14.5391 1.5 14.0304 1.5 13.5V4.5H1C0.734784 4.5 0.48043 4.39464 0.292893 4.20711C0.105357 4.01957 0 3.76522 0 3.5V2.5C0 2.23478 0.105357 1.98043 0.292893 1.79289C0.48043 1.60536 0.734784 1.5 1 1.5H4.5C4.5 1.23478 4.60536 0.98043 4.79289 0.792893C4.98043 0.605357 5.23478 0.5 5.5 0.5H7.5C7.76522 0.5 8.01957 0.605357 8.20711 0.792893C8.39464 0.98043 8.5 1.23478 8.5 1.5H12C12.2652 1.5 12.5196 1.60536 12.7071 1.79289C12.8946 1.98043 13 2.23478 13 2.5V3.5ZM2.618 4.5L2.5 4.559V13.5C2.5 13.7652 2.60536 14.0196 2.79289 14.2071C2.98043 14.3946 3.23478 14.5 3.5 14.5H9.5C9.76522 14.5 10.0196 14.3946 10.2071 14.2071C10.3946 14.0196 10.5 13.7652 10.5 13.5V4.559L10.382 4.5H2.618ZM1 3.5V2.5H12V3.5H1Z" fill="currentColor"/>
</svg>
