<svg width="24" height="24" viewBox="0 0 24 24" fill="none" xmlns="http://www.w3.org/2000/svg">
<path d="M12.0001 13.6923C14.3366 13.6923 16.2308 11.7981 16.2308 9.46148C16.2308 7.12489 14.3366 5.23071 12.0001 5.23071C9.66347 5.23071 7.76929 7.12489 7.76929 9.46148C7.76929 11.7981 9.66347 13.6923 12.0001 13.6923Z" stroke="currentColor" stroke-width="1.71429" stroke-linecap="round" stroke-linejoin="round"/>
<path d="M4.77374 20.2923C5.52892 19.0527 6.59028 18.0282 7.85579 17.3173C9.12129 16.6064 10.5484 16.233 11.9999 16.233C13.4514 16.233 14.8785 16.6064 16.144 17.3173C17.4095 18.0282 18.4709 19.0527 19.2261 20.2923" stroke="currentColor" stroke-width="1.71429" stroke-linecap="round" stroke-linejoin="round"/>
<path d="M12 23C18.0751 23 23 18.0751 23 12C23 5.92487 18.0751 1 12 1C5.92487 1 1 5.92487 1 12C1 18.0751 5.92487 23 12 23Z" stroke="currentColor" stroke-width="1.71429" stroke-linecap="round" stroke-linejoin="round"/>
</svg>
