<svg width="30" height="30" viewBox="0 0 30 30" fill="none" xmlns="http://www.w3.org/2000/svg">
<path d="M15 30C23.2843 30 30 23.2843 30 15C30 6.71573 23.2843 0 15 0C6.71573 0 0 6.71573 0 15C0 23.2843 6.71573 30 15 30Z" fill="currentColor"/>
<path fill-rule="evenodd" clip-rule="evenodd" d="M15 29C22.732 29 29 22.732 29 15C29 7.26801 22.732 1 15 1C7.26801 1 1 7.26801 1 15C1 22.732 7.26801 29 15 29ZM30 15C30 23.2843 23.2843 30 15 30C6.71573 30 0 23.2843 0 15C0 6.71573 6.71573 0 15 0C23.2843 0 30 6.71573 30 15Z" fill="currentColor"/>
<path fill-rule="evenodd" clip-rule="evenodd" d="M15.0002 7.49994C15.8287 7.49994 16.5002 8.17151 16.5002 8.99994V14.9999C16.5002 15.8284 15.8287 16.4999 15.0002 16.4999C14.1718 16.4999 13.5002 15.8284 13.5002 14.9999V8.99994C13.5002 8.17151 14.1718 7.49994 15.0002 7.49994ZM13.5002 20.9999C13.5002 20.1715 14.1718 19.4999 15.0002 19.4999H15.0152C15.8437 19.4999 16.5152 20.1715 16.5152 20.9999C16.5152 21.8284 15.8437 22.4999 15.0152 22.4999H15.0002C14.1718 22.4999 13.5002 21.8284 13.5002 20.9999Z" fill="white"/>
</svg>
